<svg width="27" height="27" viewBox="0 0 272 275" fill="none" xmlns="http://www.w3.org/2000/svg">
<rect x="272" y="125" width="24" height="50" rx="12" transform="rotate(90 272 125)" fill="black"/>
<rect x="50" y="125" width="24" height="50" rx="12" transform="rotate(90 50 125)" fill="black"/>
<circle cx="137.5" cy="135.5" r="65.5" fill="black"/>
<rect x="126" width="24" height="50" rx="12" fill="black"/>
<path d="M40.0148 57.9264C35.3285 53.2402 35.3285 45.6422 40.0148 40.9559V40.9559C44.7011 36.2696 52.2991 36.2696 56.9854 40.9559L75.3702 59.3407C80.0565 64.0269 80.0565 71.6249 75.3702 76.3112V76.3112C70.6839 80.9975 63.0859 80.9975 58.3996 76.3112L40.0148 57.9264Z" fill="black"/>
<path d="M217.258 39.8731C221.944 35.1868 229.542 35.1868 234.228 39.8731V39.8731C238.915 44.5594 238.915 52.1574 234.228 56.8437L215.844 75.2284C211.157 79.9147 203.559 79.9147 198.873 75.2284V75.2284C194.187 70.5421 194.187 62.9442 198.873 58.2579L217.258 39.8731Z" fill="black"/>
<path d="M233.485 219.044C238.171 223.73 238.171 231.328 233.485 236.015V236.015C228.799 240.701 221.201 240.701 216.515 236.015L198.13 217.63C193.444 212.944 193.444 205.346 198.13 200.659V200.659C202.816 195.973 210.414 195.973 215.1 200.659L233.485 219.044Z" fill="black"/>
<path d="M57.8761 234.341C53.1898 239.027 45.5919 239.027 40.9056 234.341V234.341C36.2193 229.654 36.2193 222.056 40.9056 217.37L59.2904 198.985C63.9766 194.299 71.5746 194.299 76.2609 198.985V198.985C80.9472 203.672 80.9472 211.27 76.2609 215.956L57.8761 234.341Z" fill="black"/>
<rect x="126" y="225" width="24" height="50" rx="12" fill="black"/>
</svg>
